<?xml version="1.0" encoding="UTF-8" standalone="no" ?>
<!DOCTYPE svg PUBLIC "-//W3C//DTD SVG 1.1//EN" "http://www.w3.org/Graphics/SVG/1.1/DTD/svg11.dtd">
<svg xmlns="http://www.w3.org/2000/svg" xmlns:xlink="http://www.w3.org/1999/xlink" version="1.1" width="200" height="200" viewBox="0 0 640 640" xml:space="preserve">
<desc>Created with Fabric.js 4.6.0</desc>
<defs>
</defs>
<g transform="matrix(6.41 0 0 1.23 288.03 192.61)" id="hn0fQTmId2xaENHwE1-Fa"  >
<path style="stroke: rgb(222,26,98); stroke-width: 0; stroke-dasharray: none; stroke-linecap: butt; stroke-dashoffset: 0; stroke-linejoin: miter; stroke-miterlimit: 4; fill: rgb(255,255,255); fill-rule: nonzero; opacity: 1;" vector-effect="non-scaling-stroke"  transform=" translate(0, 0)" d="M -35.95106 -20.69832 C -35.95106 -29.12218 -34.64478 -35.95106 -33.0334 -35.95106 L 33.03339 -35.95106 L 33.03339 -35.95106 C 34.644769999999994 -35.95106 35.951049999999995 -29.122169999999997 35.951049999999995 -20.69832 L 35.951049999999995 20.69832 L 35.951049999999995 20.69832 C 35.951049999999995 29.12218 34.644769999999994 35.95106 33.03339 35.95106 L -33.0334 35.95106 L -33.0334 35.95106 C -34.64478 35.95106 -35.95106 29.122169999999997 -35.95106 20.69832 z" stroke-linecap="round" />
</g>
<g transform="matrix(6.41 0 0 1.23 352.07 320)" id="bGgoINeNDjR3UhlDUDoWU"  >
<path style="stroke: rgb(222,26,98); stroke-width: 0; stroke-dasharray: none; stroke-linecap: butt; stroke-dashoffset: 0; stroke-linejoin: miter; stroke-miterlimit: 4; fill: rgb(179,62,62); fill-rule: nonzero; opacity: 1;" vector-effect="non-scaling-stroke"  transform=" translate(0, 0)" d="M -35.95106 -20.69832 C -35.95106 -29.12218 -34.64535 -35.95106 -33.03467 -35.95106 L 33.034659999999995 -35.95106 L 33.034659999999995 -35.95106 C 34.64534 -35.95106 35.951049999999995 -29.122169999999997 35.951049999999995 -20.69832 L 35.951049999999995 20.69832 L 35.951049999999995 20.69832 C 35.951049999999995 29.12218 34.64534 35.95106 33.034659999999995 35.95106 L -33.03467 35.95106 L -33.03467 35.95106 C -34.64535 35.95106 -35.95106 29.122169999999997 -35.95106 20.69832 z" stroke-linecap="round" />
</g>
<g transform="matrix(6.41 0 0 1.23 287.93 447.39)" id="oUzmG083xY7h5N6OZv_GZ"  >
<path style="stroke: rgb(222,26,98); stroke-width: 0; stroke-dasharray: none; stroke-linecap: butt; stroke-dashoffset: 0; stroke-linejoin: miter; stroke-miterlimit: 4; fill: rgb(255,255,255); fill-rule: nonzero; opacity: 1;" vector-effect="non-scaling-stroke"  transform=" translate(0, 0)" d="M -35.95106 -20.69832 C -35.95106 -29.12218 -34.64535 -35.95106 -33.03467 -35.95106 L 33.034659999999995 -35.95106 L 33.034659999999995 -35.95106 C 34.64534 -35.95106 35.951049999999995 -29.122169999999997 35.951049999999995 -20.69832 L 35.951049999999995 20.69832 L 35.951049999999995 20.69832 C 35.951049999999995 29.12218 34.64534 35.95106 33.034659999999995 35.95106 L -33.03467 35.95106 L -33.03467 35.95106 C -34.64535 35.95106 -35.95106 29.122169999999997 -35.95106 20.69832 z" stroke-linecap="round" />
</g>
</svg>